<svg xmlns="http://www.w3.org/2000/svg" viewBox="0 0 512 512">
  <path fill="#4285F4" d="M256 0C114.64 0 0 114.64 0 256c0 141.36 114.64 256 256 256s256-114.64 256-256C512 114.64 397.36 0 256 0z"/>
  <path fill="#34A853" d="M384 128L128 384c-17.67 17.67-46.33 17.67-64 0-17.67-17.67-17.67-46.33 0-64L320 64c17.67-17.67 46.33-17.67 64 0 17.67 17.67 17.67 46.33 0 64z"/>
  <path fill="#FBBC05" d="M384 384L128 128c-17.67-17.67-46.33-17.67-64 0-17.67 17.67-17.67 46.33 0 64L320 448c17.67-17.67 46.33-17.67 64 0 17.67 17.67 17.67 46.33 0 64z"/>
  <path fill="#EA4335" d="M256 128c-70.7 0-128 57.3-128 128s57.3 128 128 128 128-57.3 128-128-57.3-128-128-128z"/>
</svg>
